<svg xmlns="http://www.w3.org/2000/svg" width="1123" height="794" stroke="#000" stroke-linecap="round" stroke-linejoin="round" fill="#fff" fill-rule="evenodd"><g stroke="none"><circle cx="530.5" cy="450.5" r="275"/><g fill="#065" fill-rule="nonzero"><path d="M408.6965 377.0983c0 34.0023-27.61 61.5982-61.5983 61.5982-34.0023 0-61.5982-27.596-61.5982-61.5982 0-33.9894 27.596-61.5983 61.5982-61.5983 33.9894 0 61.5983 27.61 61.5983 61.5983zM587.933 642.4497c0 28.3918-23.0554 51.434-51.447 51.434s-51.4472-23.0423-51.4472-51.434 23.0553-51.4472 51.4472-51.4472 51.447 23.0553 51.447 51.4472zm-70.4055-210.525c0 17.9405-14.5482 32.5018-32.4887 32.5018-17.9277 0-32.49-14.5613-32.49-32.5018 0-17.9276 14.5612-32.49 32.49-32.49 17.9405 0 32.4887 14.5613 32.4887 32.49zm261.8285-51.434c0 28.3918-23.0553 51.434-51.447 51.434s-51.4472-23.0422-51.4472-51.434 23.0553-51.4472 51.4472-51.4472 51.447 23.0553 51.447 51.4472z"/><path d="M632.0603 494.88c0 21.294-17.2882 38.582-38.582 38.582s-38.582-17.2882-38.582-38.582 17.2883-38.582 38.582-38.582 38.582 17.2883 38.582 38.582zm-271.9405-97.3098l4.397-3.1576L530.3664 625.318l-4.397 3.1706L360.12 397.5702z"/><path d="M593.374 494.88l4.9712 2.1398-52.478 122.3876-4.971-2.1398L593.374 494.88z"/><path d="M596.6488 496.21l-2.766 4.658-114.3502-68.2396 2.7792-4.645 114.337 68.2265zm10.6078-10.36l-3.55-4.084 100.5066-87.3545 3.562 4.084L607.2566 485.85zM495.764 428.7933l-1.083-5.3104 199.878-40.6697 1.083 5.3104-199.878 40.6697zm-110.8534-53.091l-.0653-5.415 304.586-4.1.0652 5.4148-304.5858 4.1z"/><path d="M538.8867 630.0413l-5.2583 1.2787-48.5897-198.1035 5.2582-1.2917 48.5898 198.1165zm-59.85-202.7485l-1.8267 5.1017-125.3624-44.9103 1.8267-5.1016 125.3624 44.9102z"/></g></g><path fill="none" d="M1165.5 295.5h5" stroke="#009980"/></svg>